<svg id="Layer_1_copy" data-name="Layer 1 copy" xmlns="http://www.w3.org/2000/svg" viewBox="0 0 896.56 124.41"><defs><style>.cls-1{fill:#fff;}</style></defs><path class="cls-1" d="M17.09,32.59V26.46a5,5,0,0,0-.07-.84,6.09,6.09,0,0,0,.85.07h4.62c3.51,0,5.58.55,5.58,3.74,0,2.08-1.28,3.93-5.44,3.93H17.87a7.83,7.83,0,0,0-.83,0A7.52,7.52,0,0,0,17.09,32.59Zm0,14.07V39.57a5.44,5.44,0,0,0-.06-.83,6.76,6.76,0,0,0,.83.06h3.91c3.12,0,6.93,0,6.93,4.31,0,3.2-2.73,4.32-6.4,4.32H17.86a6.29,6.29,0,0,0-.82.06S17.09,47.06,17.09,46.66ZM5.89,21.88V51.39c0,1,.06,1.3-.62,1.72a6.48,6.48,0,0,1-2.43.67h0c-.11,0-.09.44,0,.44H26.7C36.77,54.22,41,50.22,41,44c0-4.61-2.15-7.43-6.4-8.48a.07.07,0,0,1,0-.14c2.71-.85,5.2-2.8,5.2-7.6,0-6.51-4.4-8.71-14-8.71h-23c-.11,0-.13.41,0,.44h0a6.41,6.41,0,0,1,2.44.67C6,20.59,5.89,20.92,5.89,21.88Z"/><path class="cls-1" d="M126.19,21.88c0-1-.06-1.29.62-1.71a6.3,6.3,0,0,1,2.44-.67h0c.11,0,.09-.44,0-.44H111.64c-.11,0-.14.41,0,.44h0a4.86,4.86,0,0,1,2.29.67c.67.42.62.75.62,1.71V39.62c0,4-2.32,7.15-6.92,7.15s-6.91-3.11-6.91-7.15V21.88c0-.95-.06-1.29.62-1.71a5.09,5.09,0,0,1,2.29-.67h0c.11,0,.09-.44,0-.44H87c-.12,0-.1.41,0,.43h0a2.16,2.16,0,0,1,1.4.39c.56.47.65,1,.65,2V39.32c0,8.4,4.59,15.54,18.55,15.54s18.56-7.14,18.56-15.54Z"/><path class="cls-1" d="M72.82,54.22c.11,0,.13-.41,0-.44h0a6.48,6.48,0,0,1-2.43-.67c-.68-.42-.62-.76-.62-1.72V40.19L81.94,22.11a8.74,8.74,0,0,1,1.65-2,3.5,3.5,0,0,1,.45-.31,2.4,2.4,0,0,1,1.32-.33h0c.11,0,.14-.43,0-.43H69c-.14,0-.11.43,0,.44h0c.79,0,1.77,0,1.62,1.15s-4.83,8-6.52,10.56a3.16,3.16,0,0,0-.51,1.22,3.19,3.19,0,0,0-.54-1.22c-2.35-3.5-6.37-9.17-6.49-10.56-.1-1.19.82-1.15,1.62-1.15h0c.12,0,.16-.43,0-.43H41c-.11,0-.1.39,0,.43h0a4.52,4.52,0,0,1,2,.44,3,3,0,0,1,.43.29A7.72,7.72,0,0,1,45,22.11l12.17,18V51.39c0,1,.05,1.3-.62,1.72a6.59,6.59,0,0,1-2.44.67h0c-.11,0-.09.44,0,.44Z"/><path class="cls-1" d="M173.87,29.92v1.74h-7.41V30.23c0-3.48-2.21-5.69-5.9-5.69-4.57,0-7,3.27-7,8v7.75c0,4.58,2.42,8,7,8,3.69,0,5.9-2.22,5.9-5.69V41.14h7.41v1.74c0,7-4.52,11.81-13.41,11.81-9.16,0-14.52-5.8-14.52-14.6V32.71c0-8.8,5.58-14.6,14.68-14.6C169.51,18.11,173.87,22.8,173.87,29.92Z"/><path class="cls-1" d="M187,18.53v6h-7.36v-6Zm-.16,10V54h-7.1V28.55Z"/><path class="cls-1" d="M198.34,28.55,203.44,46h.1l5.11-17.44h7L207.07,54h-7.52l-8.63-25.45Z"/><path class="cls-1" d="M227.06,18.53v6h-7.37v-6Zm-.16,10V54h-7.1V28.55Z"/><path class="cls-1" d="M240.68,17.48V54h-7.1V17.48Z"/><path class="cls-1" d="M285.24,54.74c-2.63,0-4.94-.9-7.89-3.27a18,18,0,0,1-10,3.27c-7.11,0-11.26-4.16-11.26-9.49,0-4.32,2.21-7.58,8.15-10.54A14.81,14.81,0,0,1,261.78,27c0-5.17,4-8.91,10.05-8.91,6.47,0,9.89,3.74,9.89,8,0,3.58-2.05,7.22-8.79,10.33A68.18,68.18,0,0,0,278,43.09a19.55,19.55,0,0,0,3.32-8.48H287a25.35,25.35,0,0,1-5.16,12.59c1.63,1.59,2.69,2.17,3.69,2.17,1.47,0,2.15-1.16,2.15-3.85V44h3.79v2.69C291.45,51.05,290,54.74,285.24,54.74Zm-17.36-5.59a10.17,10.17,0,0,0,5.37-1.73,73.87,73.87,0,0,1-6.47-8.17c-2.69,1.58-3.79,3.26-3.79,5.16C263,47.52,265,49.15,267.88,49.15Zm2.63-16.81c3.74-1.79,4.74-3.85,4.74-5.74A3.16,3.16,0,0,0,272,23.38a3.46,3.46,0,0,0-3.63,3.74C268.36,28.81,268.93,30.23,270.51,32.34Z"/><path class="cls-1" d="M332.85,29.92v1.74h-7.42V30.23c0-3.48-2.21-5.69-5.89-5.69-4.58,0-7,3.27-7,8v7.75c0,4.58,2.42,8,7,8,3.68,0,5.89-2.22,5.89-5.69V41.14h7.42v1.74c0,7-4.52,11.81-13.41,11.81-9.16,0-14.52-5.8-14.52-14.6V32.71c0-8.8,5.57-14.6,14.67-14.6C328.49,18.11,332.85,22.8,332.85,29.92Z"/><path class="cls-1" d="M360.73,39.51v3.58c0,7.59-4.68,11.65-11.68,11.65s-11.73-4.06-11.73-11.65V39.51c0-7.64,4.68-11.75,11.73-11.75S360.73,31.87,360.73,39.51Zm-16.41-1V44c0,3.16,1.84,5.11,4.73,5.11s4.63-1.95,4.63-5.11V38.46c0-3.11-1.73-5.12-4.63-5.12S344.32,35.35,344.32,38.46Z"/><path class="cls-1" d="M372,28.55l.53,4.27c1.94-2.8,4.42-4.91,8.42-4.91,4.68,0,7.62,3.17,7.62,8.28V54h-7.15V37.61c0-2.32-1.16-3.85-3.58-3.85a4.85,4.85,0,0,0-4.79,4.8V54h-7.1V28.55Z"/><path class="cls-1" d="M393.24,46.15V45.2h6v.63c0,2.22,1.37,3.75,4.68,3.75,2.69,0,3.9-1.11,3.9-2.48,0-1.64-1.21-2.16-5.37-3.43-5.68-1.37-8.79-3.32-8.79-8,0-4.37,3.64-7.85,10.21-7.85S413.92,31,413.92,36v.84H408v-.37c0-2.21-1.53-3.48-4.26-3.48-2.32,0-3.63,1-3.63,2.38,0,1.63,1.42,2.16,5.36,3.32,5.69,1.37,8.89,3.32,8.89,8,0,4.53-3.52,8-10.57,8C396.3,54.69,393.24,51.26,393.24,46.15Z"/><path class="cls-1" d="M421.13,28.55V23.49l7.1-1.74v6.8h6.26V34h-6.26V44.67c0,2.9.79,3.9,3.68,3.9h1.21V54H430c-6.31,0-8.83-2.9-8.83-8.17V34h-4V28.55Z"/><path class="cls-1" d="M445.06,28.55l.53,5.37c1.42-3.58,3.63-5.74,7.15-5.74a9.26,9.26,0,0,1,2.16.21v7.06a12.72,12.72,0,0,0-2.68-.26c-3.58,0-6.1,2.21-6.1,5.48V54H439V28.55Z"/><path class="cls-1" d="M465.9,28.55V44.94c0,2.32,1.15,3.79,3.57,3.79a4.81,4.81,0,0,0,4.79-4.79V28.55h7.16V54h-6.05l-.58-4.27c-2,2.79-4.37,5-8.37,5-4.73,0-7.63-3.22-7.63-8.28V28.55Z"/><path class="cls-1" d="M502.2,44.46v-.21h6.52v.9c0,5.43-3.47,9.54-10.52,9.54-7.37,0-11.58-4.59-11.58-11.91v-3c0-7.38,4.42-12,11.58-12s10.52,4,10.52,9.59v1H502.2v-.26c0-2.8-1.27-4.59-4.06-4.59s-4.52,2.27-4.52,5.69v4.17c0,3.42,1.58,5.64,4.52,5.64S502.2,47.31,502.2,44.46Z"/><path class="cls-1" d="M515.56,28.55V23.49l7.1-1.74v6.8h6.26V34h-6.26V44.67c0,2.9.79,3.9,3.68,3.9h1.21V54H524.4c-6.32,0-8.84-2.9-8.84-8.17V34h-4V28.55Z"/><path class="cls-1" d="M540.81,18.53v6h-7.37v-6Zm-.16,10V54h-7.1V28.55Z"/><path class="cls-1" d="M569.37,39.51v3.58c0,7.59-4.68,11.65-11.67,11.65S546,50.68,546,43.09V39.51c0-7.64,4.68-11.75,11.74-11.75S569.37,31.87,569.37,39.51Zm-16.41-1V44c0,3.16,1.84,5.11,4.74,5.11s4.63-1.95,4.63-5.11V38.46c0-3.11-1.74-5.12-4.63-5.12S553,35.35,553,38.46Z"/><path class="cls-1" d="M580.63,28.55l.53,4.27c1.94-2.8,4.42-4.91,8.42-4.91,4.68,0,7.62,3.17,7.62,8.28V54h-7.15V37.61c0-2.32-1.16-3.85-3.58-3.85a4.85,4.85,0,0,0-4.79,4.8V54h-7.1V28.55Z"/><path class="cls-1" d="M171.1,71.55V78H154.53v7.75h12.84v6.11H154.53v8.28h16.63v6.48h-24V71.55Z"/><path class="cls-1" d="M182.78,81.25l.53,4.27c1.94-2.8,4.41-4.91,8.41-4.91,4.69,0,7.63,3.17,7.63,8.28v17.76H192.2V90.31c0-2.32-1.16-3.85-3.58-3.85a4.85,4.85,0,0,0-4.79,4.8v15.39h-7.1V81.25Z"/><path class="cls-1" d="M215.92,115.29c-8.52,0-12.47-1.74-12.47-5.16,0-2.06,1.69-3.53,5.21-4.06V106c-2.42-.84-4-2.1-4-4.11s1.9-3.32,4.47-4.37a7.46,7.46,0,0,1-4.1-7.11V89.31c0-5.59,4.31-8.48,10.73-8.48a13.33,13.33,0,0,1,4.21.63c2.69-1,3.21-2.27,3.32-4.69h5a7.31,7.31,0,0,1,.57,2.47c0,2.59-1.94,3.59-5.57,4.22a6.9,6.9,0,0,1,3.26,6.33v.73c0,5.59-4.16,8.33-10.79,8.33a16.66,16.66,0,0,1-3.78-.37c-1.32.58-1.69,1.16-1.69,1.64,0,.84,1.26,1.42,5.32,1.42h2.05c8.36,0,11,2.74,11,6.74C228.66,112.82,224.13,115.29,215.92,115.29Zm6.69-6c0-1.37-1.9-1.9-6.11-1.9h-.89c-4,0-6.16.63-6.16,2.06s2.11,2,6.53,2S222.61,110.92,222.61,109.34Zm-3-18.66V89.05c0-2.32-1.21-3.69-3.84-3.69s-3.9,1.37-3.9,3.63v1.64c0,2.32,1.21,3.69,3.9,3.69S219.61,93,219.61,90.68Z"/><path class="cls-1" d="M239.86,71.23v6h-7.37v-6Zm-.16,10v25.4h-7.1V81.25Z"/><path class="cls-1" d="M252.33,81.25l.52,4.27c2-2.8,4.42-4.91,8.42-4.91,4.68,0,7.63,3.17,7.63,8.28v17.76h-7.16V90.31c0-2.32-1.15-3.85-3.57-3.85a4.85,4.85,0,0,0-4.79,4.8v15.39h-7.1V81.25Z"/><path class="cls-1" d="M285.58,107.39c-7.79,0-11.68-4.48-11.68-11.81V92.42c0-7.06,4.21-11.91,11.41-11.91,7.58,0,11.26,4.85,11.26,11.65v3.48h-16v.94c0,3.38,1.68,5.22,5.1,5.22s4.53-1.63,4.53-3.16v-.21h6.31v.37C296.52,103.59,292.73,107.39,285.58,107.39Zm-5-15.65h9.2v-.43c0-3.48-1.36-5.27-4.47-5.27s-4.73,1.74-4.73,5.27Z"/><path class="cls-1" d="M312.14,107.39c-7.78,0-11.68-4.48-11.68-11.81V92.42c0-7.06,4.21-11.91,11.42-11.91,7.57,0,11.26,4.85,11.26,11.65v3.48h-16v.94c0,3.38,1.69,5.22,5.11,5.22s4.52-1.63,4.52-3.16v-.21h6.32v.37C323.09,103.59,319.3,107.39,312.14,107.39Zm-5-15.65h9.21v-.43c0-3.48-1.37-5.27-4.47-5.27s-4.74,1.74-4.74,5.27Z"/><path class="cls-1" d="M334.29,81.25l.53,5.37c1.42-3.58,3.63-5.74,7.15-5.74a9.32,9.32,0,0,1,2.16.21v7.06a12.76,12.76,0,0,0-2.69-.26c-3.57,0-6.1,2.21-6.1,5.48v13.28h-7.1V81.25Z"/><path class="cls-1" d="M355.6,71.23v6h-7.37v-6Zm-.16,10v25.4h-7.11V81.25Z"/><path class="cls-1" d="M368.06,81.25l.53,4.27c1.94-2.8,4.42-4.91,8.42-4.91,4.68,0,7.63,3.17,7.63,8.28v17.76h-7.16V90.31c0-2.32-1.16-3.85-3.58-3.85a4.84,4.84,0,0,0-4.78,4.8v15.39H362V81.25Z"/><path class="cls-1" d="M401.21,115.29c-8.53,0-12.47-1.74-12.47-5.16,0-2.06,1.68-3.53,5.21-4.06V106c-2.42-.84-4.05-2.1-4.05-4.11s1.89-3.32,4.47-4.37a7.46,7.46,0,0,1-4.11-7.11V89.31c0-5.59,4.32-8.48,10.74-8.48a13.31,13.31,0,0,1,4.2.63c2.69-1,3.21-2.27,3.32-4.69h5a7.12,7.12,0,0,1,.58,2.47c0,2.59-2,3.59-5.58,4.22a6.88,6.88,0,0,1,3.26,6.33v.73c0,5.59-4.15,8.33-10.78,8.33a16.75,16.75,0,0,1-3.79-.37c-1.32.58-1.68,1.16-1.68,1.64,0,.84,1.26,1.42,5.31,1.42h2.05c8.37,0,11.05,2.74,11.05,6.74C413.94,112.82,409.41,115.29,401.21,115.29Zm6.68-6c0-1.37-1.9-1.9-6.1-1.9h-.9c-4,0-6.15.63-6.15,2.06s2.1,2,6.52,2S407.89,110.92,407.89,109.34Zm-3-18.66V89.05c0-2.32-1.21-3.69-3.84-3.69s-3.89,1.37-3.89,3.63v1.64c0,2.32,1.21,3.69,3.89,3.69S404.89,93,404.89,90.68Z"/></svg>